<svg width="24" height="24" viewBox="0 0 24 24" fill="none" xmlns="http://www.w3.org/2000/svg">
<g id="ic/24/social/instagram">
<path id="Combined Shape" fill-rule="evenodd" clip-rule="evenodd" d="M16.0326 3H7.96729C5.22827 3 3 5.22839 3 7.96741V16.0326C3 18.7717 5.22827 21 7.96729 21H16.0326C18.7717 21 21 18.7716 21 16.0326V7.96741C21.0001 5.22839 18.7717 3 16.0326 3ZM20.0001 16.3579C20.0001 18.3662 18.3662 20 16.3579 20H7.64197C5.63379 20.0001 4 18.3662 4 16.3579V7.64209C4 5.63391 5.63379 4 7.64197 4H16.3578C18.3661 4 20 5.63391 20 7.64209L20.0001 16.3579ZM7.36182 12.0002C7.36182 9.44275 9.4425 7.36206 12 7.36206C14.5575 7.36206 16.6381 9.44275 16.6381 12.0002C16.6381 14.5576 14.5575 16.6382 12 16.6382C9.4425 16.6382 7.36182 14.5576 7.36182 12.0002ZM16.4348 5.83411C16.5833 5.68506 16.7898 5.59998 17 5.59998C17.2108 5.59998 17.4174 5.68506 17.5658 5.83411C17.7148 5.98254 17.7999 6.18909 17.7999 6.40002C17.7999 6.61011 17.7148 6.81665 17.5658 6.96582C17.4166 7.11414 17.2108 7.19995 17 7.19995C16.7898 7.19995 16.5833 7.11414 16.4348 6.96582C16.2858 6.81665 16.2 6.61023 16.2 6.40002C16.2 6.26428 16.2355 6.13049 16.3004 6.0127C16.3364 5.94739 16.3816 5.88708 16.4348 5.83411Z" fill="white"/>
<mask id="mask0" mask-type="alpha" maskUnits="userSpaceOnUse" x="7" y="5" width="11" height="12">
<path id="Combined Shape_2" fill-rule="evenodd" clip-rule="evenodd" d="M16.4348 5.83411C16.5833 5.68506 16.7898 5.59998 17 5.59998C17.2108 5.59998 17.4174 5.68506 17.5658 5.83411C17.7148 5.98254 17.7999 6.18909 17.7999 6.40002C17.7999 6.61011 17.7148 6.81665 17.5658 6.96582C17.4166 7.11414 17.2108 7.19995 17 7.19995C16.7898 7.19995 16.5833 7.11414 16.4348 6.96582C16.2858 6.81665 16.2 6.61023 16.2 6.40002C16.2 6.26428 16.2355 6.13049 16.3004 6.0127C16.3364 5.94739 16.3816 5.88708 16.4348 5.83411ZM12 7.36206C9.4425 7.36206 7.36182 9.44275 7.36182 12.0002C7.36182 14.5576 9.4425 16.6382 12 16.6382C14.5575 16.6382 16.6381 14.5576 16.6381 12.0002C16.6381 9.44275 14.5575 7.36206 12 7.36206ZM12 15.8397C9.88269 15.8397 8.16003 14.1173 8.16003 12C8.16003 9.88257 9.88257 8.16003 12 8.16003C14.1174 8.16003 15.8401 9.88257 15.8401 12C15.8401 14.1173 14.1173 15.8397 12 15.8397Z" fill="white"/>
</mask>
<g mask="url(#mask0)">
</g>
</g>
</svg>
