<svg width="16" height="16" viewBox="0 0 16 16" fill="none" xmlns="http://www.w3.org/2000/svg">
<g id="search">
<path id="Shape" fill-rule="evenodd" clip-rule="evenodd" d="M6.03638 0C9.30908 0 12 2.61819 12 5.96362C12 7.49091 11.4182 8.87274 10.5454 9.81818L16 15.2727L15.3455 15.9273L9.89087 10.4727C8.80005 11.3455 7.41821 11.9273 5.96362 11.9273C2.69092 11.9273 0 9.30908 0 5.96362C0 2.69092 2.69092 0 6.03638 0ZM0.872681 5.96365C0.872681 8.80002 3.19995 11.0546 5.96362 11.0546C8.79993 11.0546 11.0544 8.80002 11.0544 5.96365C11.0544 3.12729 8.79993 0.872742 5.96362 0.872742C3.1272 0.872742 0.872681 3.20001 0.872681 5.96365Z" fill="#262626"/>
</g>
</svg>
