<svg>

<symbol id="header__logo-svg-use" width="121" height="14" viewBox="0 0 121 14" fill="none" xmlns="http://www.w3.org/2000/svg">
<path d="M9.42307 1.52885V8.16346C9.42307 10.375 8.46154 11.2885 6.15384 11.2885C3.84615 11.2885 2.88461 10.375 2.88461 8.16346V1.24039H0.673075C0.528844 1.24039 0.384613 1.38462 0.384613 1.52885V8.25962C0.384613 11.9615 2.74038 13.2596 6.15384 13.2596C9.56731 13.2596 11.9231 11.9615 11.9231 8.25962V1.24039H9.71154C9.56731 1.24039 9.42307 1.33654 9.42307 1.52885Z" fill="black"/>
<path d="M41.5865 3.16346C41.7789 3.16346 41.875 3.11539 41.9231 2.97116L42.5481 1.38462C42.5962 1.28846 42.5481 1.24039 42.4519 1.24039H33.5096C32.6923 1.24039 32.3558 1.48077 32.3558 2.05769V12.3462C32.3558 12.8269 32.5962 13.0673 33.2212 13.0673H41.5385C41.7308 13.0673 41.8269 13.0192 41.875 12.875L42.5 11.2885C42.5481 11.1923 42.5 11.1442 42.4039 11.1442H34.8077V9.02885C34.8077 8.30769 35.1923 7.97116 36.2981 7.97116H39.6154C39.8077 7.97116 39.9039 7.92308 39.9519 7.77885L40.5769 6.24039C40.625 6.14423 40.5769 6.09616 40.4808 6.09616H34.8558V3.11539H41.5865V3.16346Z" fill="black"/>
<path fill-rule="evenodd" clip-rule="evenodd" d="M25.8654 6.81732C26.8269 6.28845 27.2115 5.375 27.2115 4.22116C27.2115 1.625 25.0961 1.24039 22.8846 1.24039H17.8365C17.0192 1.24039 16.6827 1.48077 16.6827 2.05771V12.3462C16.6827 12.8269 16.9231 13.0673 17.5481 13.0673H23.75C26.1057 13.0673 27.7404 12.1538 27.7404 9.79807C27.7885 8.35577 27.2115 7.15384 25.8654 6.81732ZM19.1827 3.11539H23.0769C24.375 3.11539 24.7596 3.59616 24.7596 4.60577C24.7596 5.61539 24.375 6.09616 23.0769 6.09616H19.1827V3.11539ZM19.1827 11.1442H23.5577C24.9519 11.1442 25.3365 10.6635 25.3365 9.55768C25.3365 8.4519 24.9519 7.92307 23.5577 7.92307H20.6731C19.5673 7.92307 19.1827 8.25961 19.1827 8.98074V11.1442Z" fill="black"/>
<path class="path-4" fill-rule="evenodd" clip-rule="evenodd" d="M55.3846 8.30771L58.0288 12.875C58.0769 12.9231 58.0769 13.0673 57.9808 13.0673H55.7212C55.5288 13.0673 55.4808 13.0192 55.3846 12.875L52.9808 8.54807H50.8173C49.7115 8.54807 49.3269 8.88461 49.3269 9.60577V13.0673H47.1635C47.0192 13.0673 46.875 12.9231 46.875 12.7788V2.05771C46.875 1.48077 47.2115 1.24039 48.0288 1.24039H53.0769C56.0096 1.24039 57.7885 2.00961 57.7885 4.89423C57.7885 7.10577 56.6827 7.97116 55.3846 8.30771ZM49.2788 6.72116H53.4135C54.9519 6.72116 55.2885 6.14423 55.2885 4.89423C55.2885 3.69232 54.9519 3.11539 53.4135 3.11539H49.2788V6.72116Z" fill="black"/>
<path d="M76.4423 12.0096L76.3942 13.0673H67.6442V1.24039H76.0577L76.1058 2.34616H68.8461V6.43269H75.0961V7.39423H68.8461V12.0096H76.4423Z" fill="#57AD56" stroke="#57AD56" stroke-width="0.25"/>
<path fill-rule="evenodd" clip-rule="evenodd" d="M83.7019 9.99039H90.6731L92.0192 13.0673H93.3654L87.9327 1.24039H86.5385L81.0577 13.0673H82.3557L83.7019 9.99039ZM84.1346 8.98077L86.6827 3.25964L87.1635 2.05771H87.2115L87.6923 3.25964L90.1923 8.98077H84.1346Z" fill="#57AD56"/>
<path d="M90.6731 9.99039L90.7876 9.94028L90.7548 9.86539H90.6731V9.99039ZM83.7019 9.99039V9.86539H83.6202L83.5874 9.94028L83.7019 9.99039ZM92.0192 13.0673L91.9047 13.1174L91.9375 13.1923H92.0192V13.0673ZM93.3654 13.0673V13.1923H93.5603L93.4789 13.0151L93.3654 13.0673ZM87.9327 1.24039L88.0463 1.18821L88.0128 1.11539H87.9327V1.24039ZM86.5385 1.24039V1.11539H86.4586L86.425 1.18783L86.5385 1.24039ZM81.0577 13.0673L80.9443 13.0148L80.862 13.1923H81.0577V13.0673ZM82.3557 13.0673V13.1923H82.4375L82.4703 13.1174L82.3557 13.0673ZM86.6827 3.25964L86.7969 3.31054L86.7987 3.30607L86.6827 3.25964ZM84.1346 8.98077L84.0204 8.92992L83.9421 9.10577H84.1346V8.98077ZM87.1635 2.05771V1.93271H87.0788L87.0474 2.01128L87.1635 2.05771ZM87.2115 2.05771L87.3276 2.01129L87.2962 1.93271H87.2115V2.05771ZM87.6923 3.25964L87.5762 3.30609L87.5777 3.3097L87.6923 3.25964ZM90.1923 8.98077V9.10577H90.3833L90.3068 8.93072L90.1923 8.98077ZM90.6731 9.86539H83.7019V10.1154H90.6731V9.86539ZM92.1337 13.0172L90.7876 9.94028L90.5585 10.0405L91.9047 13.1174L92.1337 13.0172ZM93.3654 12.9423H92.0192V13.1923H93.3654V12.9423ZM87.8191 1.29256L93.2518 13.1195L93.4789 13.0151L88.0463 1.18821L87.8191 1.29256ZM86.5385 1.36539H87.9327V1.11539H86.5385V1.36539ZM81.1711 13.1199L86.6519 1.29294L86.425 1.18783L80.9443 13.0148L81.1711 13.1199ZM82.3557 12.9423H81.0577V13.1923H82.3557V12.9423ZM83.5874 9.94028L82.2412 13.0172L82.4703 13.1174L83.8164 10.0405L83.5874 9.94028ZM86.5685 3.20879L84.0204 8.92992L84.2488 9.03163L86.7969 3.3105L86.5685 3.20879ZM87.0474 2.01128L86.5666 3.21322L86.7987 3.30607L87.2795 2.10413L87.0474 2.01128ZM87.2115 1.93271H87.1635V2.18271H87.2115V1.93271ZM87.8084 3.21322L87.3276 2.01129L87.0955 2.10413L87.5762 3.30606L87.8084 3.21322ZM90.3068 8.93072L87.8068 3.20959L87.5777 3.3097L90.0777 9.03083L90.3068 8.93072ZM84.1346 9.10577H90.1923V8.85577H84.1346V9.10577Z" fill="#57AD56"/>
<path d="M102.019 2.34616V13.0673H100.817V2.34616H96.3942L96.4423 1.24039H106.49V2.34616H102.019Z" fill="#57AD56" stroke="#57AD56" stroke-width="0.25"/>
<path d="M115.048 13.3077C113.413 13.3077 112.115 12.9231 111.058 12.2981L111.25 11.2404C112.356 11.8654 113.606 12.25 115.096 12.25C117.308 12.25 118.462 11.2404 118.462 9.79808C118.462 6.67308 111.25 8.30769 111.25 4.26923C111.25 2.53846 112.548 1 115.577 1C116.971 1 118.221 1.24038 119.231 1.72115L119.038 2.73077C117.933 2.29808 116.875 2.05769 115.625 2.05769C113.269 2.05769 112.404 3.11538 112.404 4.17308C112.404 7.15385 119.615 5.47115 119.615 9.70192C119.567 11.8173 118.029 13.3077 115.048 13.3077Z" fill="#57AD56" stroke="#57AD56" stroke-width="0.25"/>
</symbol>

<symbol id="footer__logo-svg-use" width="192" height="21" viewBox="0 0 192 21" fill="none" xmlns="http://www.w3.org/2000/svg">
<g id="white-logo">
<g id="XMLID_234_">
<path id="XMLID_243_" d="M15.0769 1.84618V12.4616C15.0769 16 13.5385 17.4616 9.84616 17.4616C6.15385 17.4616 4.61539 16 4.61539 12.4616V1.38464H1.07693C0.846156 1.38464 0.615387 1.61541 0.615387 1.84618V12.6154C0.615387 18.5385 4.38462 20.6154 9.84616 20.6154C15.3077 20.6154 19.0769 18.5385 19.0769 12.6154V1.38464H15.5385C15.3077 1.38464 15.0769 1.53849 15.0769 1.84618Z" fill="white"/>
<path id="XMLID_242_" d="M66.5385 4.46157C66.8461 4.46157 67 4.38464 67.0769 4.15387L68.0769 1.61541C68.1538 1.46157 68.0769 1.38464 67.9231 1.38464H53.6154C52.3077 1.38464 51.7692 1.76926 51.7692 2.69234V19.1539C51.7692 19.9231 52.1538 20.3077 53.1538 20.3077H66.4615C66.7692 20.3077 66.9231 20.2308 67 20L68 17.4616C68.0769 17.3077 68 17.2308 67.8461 17.2308H55.6923V13.8462C55.6923 12.6923 56.3077 12.1539 58.0769 12.1539H63.3846C63.6923 12.1539 63.8461 12.077 63.9231 11.8462L64.9231 9.38464C65 9.2308 64.9231 9.15387 64.7692 9.15387H55.7692V4.38464H66.5385V4.46157Z" fill="white"/>
<path id="XMLID_238_" fill-rule="evenodd" clip-rule="evenodd" d="M41.3846 10.3077C42.9231 9.46155 43.5385 8 43.5385 6.15393C43.5385 2 40.1539 1.38464 36.6154 1.38464H28.5385C27.2308 1.38464 26.6923 1.76929 26.6923 2.69238V19.1539C26.6923 19.9231 27.0769 20.3077 28.0769 20.3077H38C41.7693 20.3077 44.3846 18.8462 44.3846 15.0769C44.4615 12.7693 43.5385 10.8462 41.3846 10.3077ZM30.6923 4.38464H36.9231C39 4.38464 39.6154 5.15393 39.6154 6.76929C39.6154 8.38464 39 9.15393 36.9231 9.15393H30.6923V4.38464ZM30.6923 17.2307H37.6923C39.9231 17.2307 40.5385 16.4615 40.5385 14.6923C40.5385 12.9231 39.9231 12.0769 37.6923 12.0769H33.0769C31.3077 12.0769 30.6923 12.6154 30.6923 13.7692V17.2307Z" fill="white"/>
<path id="XMLID_235_" fill-rule="evenodd" clip-rule="evenodd" d="M88.6154 12.6924L92.8462 20C92.9231 20.0769 92.9231 20.3077 92.7692 20.3077H89.1538C88.8462 20.3077 88.7692 20.2308 88.6154 20L84.7692 13.0769H81.3077C79.5385 13.0769 78.9231 13.6154 78.9231 14.7693V20.3077H75.4615C75.2308 20.3077 75 20.0769 75 19.8462V2.69238C75 1.76929 75.5385 1.38464 76.8462 1.38464H84.9231C89.6154 1.38464 92.4615 2.61536 92.4615 7.23083C92.4615 10.7693 90.6923 12.1539 88.6154 12.6924ZM78.8462 10.1539H85.4615C87.9231 10.1539 88.4615 9.23083 88.4615 7.23083C88.4615 5.30774 87.9231 4.38464 85.4615 4.38464H78.8462V10.1539Z" fill="white"/>
</g>
<g id="XMLID_224_">
<path id="XMLID_232_" d="M122.308 18.6154L122.231 20.3077H108.231V1.38464H121.692L121.769 3.15387H110.154V9.69234H120.154V11.2308H110.154V18.6154H122.308Z" fill="#57AD56" stroke="#57AD56" stroke-width="0.25"/>
<g id="XMLID_229_">
<path fill-rule="evenodd" clip-rule="evenodd" d="M133.923 15.3846H145.077L147.231 20.3077H149.385L140.692 1.38464H138.462L129.692 20.3077H131.769L133.923 15.3846ZM134.615 13.7693L138.692 4.61548L139.462 2.69238H139.538L140.308 4.61548L144.308 13.7693H134.615Z" fill="#57AD56"/>
<path d="M145.077 15.3846L145.191 15.3345L145.159 15.2596H145.077V15.3846ZM133.923 15.3846V15.2596H133.841L133.809 15.3345L133.923 15.3846ZM147.231 20.3077L147.116 20.3578L147.149 20.4327H147.231V20.3077ZM149.385 20.3077V20.4327H149.58L149.498 20.2556L149.385 20.3077ZM140.692 1.38464L140.806 1.33247L140.772 1.25964H140.692V1.38464ZM138.462 1.38464V1.25964H138.382L138.348 1.33209L138.462 1.38464ZM129.692 20.3077L129.579 20.2552L129.497 20.4327H129.692V20.3077ZM131.769 20.3077V20.4327H131.851L131.884 20.3578L131.769 20.3077ZM138.692 4.61548L138.807 4.66637L138.808 4.6619L138.692 4.61548ZM134.615 13.7693L134.501 13.7184L134.423 13.8943H134.615V13.7693ZM139.462 2.69238V2.56738H139.377L139.345 2.64596L139.462 2.69238ZM139.538 2.69238L139.655 2.64596L139.623 2.56738H139.538V2.69238ZM140.308 4.61548L140.192 4.66193L140.193 4.66553L140.308 4.61548ZM144.308 13.7693V13.8943H144.499L144.422 13.7192L144.308 13.7693ZM145.077 15.2596H133.923V15.5096H145.077V15.2596ZM147.345 20.2576L145.191 15.3345L144.962 15.4347L147.116 20.3578L147.345 20.2576ZM149.385 20.1827H147.231V20.4327H149.385V20.1827ZM140.579 1.43682L149.271 20.3599L149.498 20.2556L140.806 1.33247L140.579 1.43682ZM138.462 1.50964H140.692V1.25964H138.462V1.50964ZM129.806 20.3603L138.575 1.4372L138.348 1.33209L129.579 20.2552L129.806 20.3603ZM131.769 20.1827H129.692V20.4327H131.769V20.1827ZM133.809 15.3345L131.655 20.2576L131.884 20.3578L134.038 15.4347L133.809 15.3345ZM138.578 4.56462L134.501 13.7184L134.73 13.8201L138.807 4.66634L138.578 4.56462ZM139.345 2.64596L138.576 4.56906L138.808 4.6619L139.578 2.73881L139.345 2.64596ZM139.538 2.56738H139.462V2.81738H139.538V2.56738ZM140.424 4.56905L139.655 2.64596L139.422 2.73881L140.192 4.6619L140.424 4.56905ZM144.422 13.7192L140.422 4.56543L140.193 4.66553L144.193 13.8193L144.422 13.7192ZM134.615 13.8943H144.308V13.6443H134.615V13.8943Z" fill="#57AD56"/>
</g>
<path id="XMLID_227_" d="M163.231 3.15387V20.3077H161.308V3.15387H154.231L154.308 1.38464H170.385V3.15387H163.231Z" fill="#57AD56" stroke="#57AD56" stroke-width="0.25"/>
<path id="XMLID_225_" d="M184.077 20.6923C181.462 20.6923 179.385 20.0769 177.692 19.0769L178 17.3846C179.769 18.3846 181.769 19 184.154 19C187.692 19 189.538 17.3846 189.538 15.0769C189.538 10.0769 178 12.6923 178 6.23077C178 3.46154 180.077 1 184.923 1C187.154 1 189.154 1.38462 190.769 2.15385L190.462 3.76923C188.692 3.07692 187 2.69231 185 2.69231C181.231 2.69231 179.846 4.38462 179.846 6.07692C179.846 10.8462 191.385 8.15385 191.385 14.9231C191.308 18.3077 188.846 20.6923 184.077 20.6923Z" fill="#57AD56" stroke="#57AD56" stroke-width="0.25"/>
</g>
</g>
</symbol>



<symbol id="social__facebook-svg-use"  viewBox="0 0 24 24" fill="none" xmlns="http://www.w3.org/2000/svg">  
<g id="ic/24/social/facebook">
<path id="Shape" fill-rule="evenodd" clip-rule="evenodd" d="M19.5 3H4.5C3.65997 3 3 3.66003 3 4.5V19.5C3 20.34 3.65997 21 4.5 21H11.4H15H19.5C20.34 21 21 20.34 21 19.5V4.5C21 3.66003 20.34 3 19.5 3ZM12.0518 14.2609H9.79999V11.9652H12.0518V9.95654C12.0518 8.32092 13.2904 6.94348 14.8667 6.80005H17.4V9.0957H15.1481C14.6696 9.0957 14.3037 9.46875 14.3037 9.95654V11.9652H17.1185V14.2609H14.3037V20.2001H12.0518V14.2609ZM14.9286 20.2001H19.3214C19.8193 20.2001 20.2 19.8193 20.2 19.3215V4.67859C20.2 4.18079 19.8193 3.80005 19.3214 3.80005H4.67856C4.18069 3.80005 3.79999 4.18079 3.79999 4.67859V19.3215C3.79999 19.8193 4.18069 20.2001 4.67856 20.2001H11.4142V14.9286H9.07138V11.4143H11.4142V9.95007C11.4142 7.98792 12.9371 6.3186 14.8993 6.14294H18.15V9.65723H15.2214C15.0457 9.65723 14.9286 9.77429 14.9286 9.95007V11.4143H17.8571V14.9286H14.9286V20.2001Z" fill="white"/>
<mask id="mask0" mask-type="alpha" maskUnits="userSpaceOnUse" x="3" y="3" width="18" height="18">
<path id="Shape_2" fill-rule="evenodd" clip-rule="evenodd" d="M19.5 3H4.5C3.65997 3 3 3.66003 3 4.5V19.5C3 20.34 3.65997 21 4.5 21H11.4H15H19.5C20.34 21 21 20.34 21 19.5V4.5C21 3.66003 20.34 3 19.5 3ZM12.0518 14.2609H9.79999V11.9652H12.0518V9.95654C12.0518 8.32092 13.2904 6.94348 14.8667 6.80005H17.4V9.0957H15.1481C14.6696 9.0957 14.3037 9.46875 14.3037 9.95654V11.9652H17.1185V14.2609H14.3037V20.2001H12.0518V14.2609ZM14.9286 20.2001H19.3214C19.8193 20.2001 20.2 19.8193 20.2 19.3215V4.67859C20.2 4.18079 19.8193 3.80005 19.3214 3.80005H4.67856C4.18069 3.80005 3.79999 4.18079 3.79999 4.67859V19.3215C3.79999 19.8193 4.18069 20.2001 4.67856 20.2001H11.4142V14.9286H9.07138V11.4143H11.4142V9.95007C11.4142 7.98792 12.9371 6.3186 14.8993 6.14294H18.15V9.65723H15.2214C15.0457 9.65723 14.9286 9.77429 14.9286 9.95007V11.4143H17.8571V14.9286H14.9286V20.2001Z" fill="white"/>
</mask>
<g mask="url(#mask0)">
</g>
</g>
</symbol>


<symbol id="social__twitter-svg-use"  viewBox="0 0 24 24" fill="none" xmlns="http://www.w3.org/2000/svg">  
<path  fill-rule="evenodd" clip-rule="evenodd" d="M20.5302 6.09489C20.6525 6.06364 20.8052 6.09489 20.8969 6.18864C20.9885 6.28239 21.0191 6.43864 20.9886 6.56364C20.7136 7.46977 20.1637 8.12602 19.4915 8.46977V8.5634C19.4915 14.5942 15.092 19.5 9.71484 19.5C6.69018 19.5 4.24606 18.9688 3.14617 18.0627C3.02398 17.9377 2.96285 17.7814 3.02398 17.5939C3.08505 17.4377 3.23782 17.3127 3.42114 17.3127C5.22372 17.2814 6.38467 16.844 7.27069 16.3128C5.55975 16.094 4.49041 15.2504 3.94052 13.6568C3.87939 13.5005 3.94052 13.3443 4.06271 13.2505C4.1849 13.1568 4.36822 13.1568 4.49041 13.2193C4.94869 13.5318 5.40698 13.5943 5.9569 13.5943C4.79595 12.8757 3.72662 11.6882 3.29891 10.2195C3.26834 10.0633 3.32946 9.8759 3.45165 9.8134C3.60443 9.71965 3.7572 9.7509 3.87939 9.84465C4.21548 10.1258 4.58212 10.3133 5.13201 10.407C3.94052 9.15715 3.20727 7.31352 4.24603 5.28252L4.42935 4.90752L4.7348 5.22002C6.62905 7.25102 8.37051 8.18852 11.5479 8.8134V8.6884C11.5479 6.40739 13.2894 4.53252 15.4586 4.50127C16.314 4.50127 17.5055 5.12627 17.9944 5.40752C18.0061 5.40752 18.0177 5.41203 18.0277 5.41594C18.0438 5.42229 18.0555 5.4268 18.0555 5.40752C18.6666 5.22002 19.3998 4.90752 20.2552 4.53252C20.3775 4.47002 20.5302 4.50127 20.6219 4.59502C20.7136 4.68877 20.7441 4.81377 20.683 4.97002C20.5302 5.40752 20.2858 5.87627 19.9192 6.31364L20.5302 6.09489ZM18.7354 8.23784L18.9133 8.17741C19.4764 7.96623 19.8025 7.51347 20.01 7.12126L18.854 7.5136C18.7058 7.5739 18.528 7.5136 18.4687 7.36272C18.4094 7.21172 18.4391 7.03069 18.5576 6.94011C19.0318 6.54778 19.3875 6.12529 19.6543 5.67265C19.0615 5.91399 18.528 6.12529 18.0834 6.27617C17.9055 6.33647 17.7277 6.30632 17.5499 6.21587L17.5316 6.20573C17.1836 6.01225 16.0853 5.40141 15.4158 5.4312C13.6374 5.46135 12.2147 7.00053 12.2147 8.87163V9.7166L11.8589 9.6563C8.59857 9.05266 6.79049 8.17741 4.89352 6.27617C4.00433 8.56975 5.84201 10.1694 6.46444 10.622L7.20541 11.1652H6.28655C5.69375 11.1652 5.04168 11.1049 4.44888 10.8333C5.10098 12.2215 6.43481 13.2476 7.56112 13.5796L7.47219 14.1832C7.2351 14.1832 6.99795 14.1832 6.76086 14.2133C6.13839 14.2436 5.57525 14.2436 5.04171 14.0624C5.63452 15.2093 6.67193 15.6922 8.36141 15.6922H9.25061L8.50961 16.2354C7.59075 16.9596 6.40515 17.6236 4.35998 17.7746C5.3381 18.2574 7.14611 18.7101 9.84338 18.7101C14.4647 18.7101 18.7354 13.9991 18.7354 8.7509V8.23784Z" fill="white"/>
<mask id="mask0" mask-type="alpha" maskUnits="userSpaceOnUse" x="3" y="4" width="18" height="16">
<path fill-rule="evenodd" clip-rule="evenodd" d="M20.5302 6.09489C20.6525 6.06364 20.8052 6.09489 20.8969 6.18864C20.9885 6.28239 21.0191 6.43864 20.9886 6.56364C20.7136 7.46977 20.1637 8.12602 19.4915 8.46977V8.5634C19.4915 14.5942 15.092 19.5 9.71484 19.5C6.69018 19.5 4.24606 18.9688 3.14617 18.0627C3.02398 17.9377 2.96285 17.7814 3.02398 17.5939C3.08505 17.4377 3.23782 17.3127 3.42114 17.3127C5.22372 17.2814 6.38467 16.844 7.27069 16.3128C5.55975 16.094 4.49041 15.2504 3.94052 13.6568C3.87939 13.5005 3.94052 13.3443 4.06271 13.2505C4.1849 13.1568 4.36822 13.1568 4.49041 13.2193C4.94869 13.5318 5.40698 13.5943 5.9569 13.5943C4.79595 12.8757 3.72662 11.6882 3.29891 10.2195C3.26834 10.0633 3.32946 9.8759 3.45165 9.8134C3.60443 9.71965 3.7572 9.7509 3.87939 9.84465C4.21548 10.1258 4.58212 10.3133 5.13201 10.407C3.94052 9.15715 3.20727 7.31352 4.24603 5.28252L4.42935 4.90752L4.7348 5.22002C6.62905 7.25102 8.37051 8.18852 11.5479 8.8134V8.6884C11.5479 6.40739 13.2894 4.53252 15.4586 4.50127C16.314 4.50127 17.5055 5.12627 17.9944 5.40752C18.0061 5.40752 18.0177 5.41203 18.0277 5.41594C18.0438 5.42229 18.0555 5.4268 18.0555 5.40752C18.6666 5.22002 19.3998 4.90752 20.2552 4.53252C20.3775 4.47002 20.5302 4.50127 20.6219 4.59502C20.7136 4.68877 20.7441 4.81377 20.683 4.97002C20.5302 5.40752 20.2858 5.87627 19.9192 6.31364L20.5302 6.09489ZM18.7354 8.23784L18.9133 8.17741C19.4764 7.96623 19.8025 7.51347 20.01 7.12126L18.854 7.5136C18.7058 7.5739 18.528 7.5136 18.4687 7.36272C18.4094 7.21172 18.4391 7.03069 18.5576 6.94011C19.0318 6.54778 19.3875 6.12529 19.6543 5.67265C19.0615 5.91399 18.528 6.12529 18.0834 6.27617C17.9055 6.33647 17.7277 6.30632 17.5499 6.21587L17.5316 6.20573C17.1836 6.01225 16.0853 5.40141 15.4158 5.4312C13.6374 5.46135 12.2147 7.00053 12.2147 8.87163V9.7166L11.8589 9.6563C8.59857 9.05266 6.79049 8.17741 4.89352 6.27617C4.00433 8.56975 5.84201 10.1694 6.46444 10.622L7.20541 11.1652H6.28655C5.69375 11.1652 5.04168 11.1049 4.44888 10.8333C5.10098 12.2215 6.43481 13.2476 7.56112 13.5796L7.47219 14.1832C7.2351 14.1832 6.99795 14.1832 6.76086 14.2133C6.13839 14.2436 5.57525 14.2436 5.04171 14.0624C5.63452 15.2093 6.67193 15.6922 8.36141 15.6922H9.25061L8.50961 16.2354C7.59075 16.9596 6.40515 17.6236 4.35998 17.7746C5.3381 18.2574 7.14611 18.7101 9.84338 18.7101C14.4647 18.7101 18.7354 13.9991 18.7354 8.7509V8.23784Z" fill="white"/>
</mask>
<g mask="url(#mask0)">
</g>
</symbol>


<symbol id="social__instagram-svg-use"  viewBox="0 0 24 24" fill="none" xmlns="http://www.w3.org/2000/svg">  
<g id="ic/24/social/instagram">
<path id="Combined Shape" fill-rule="evenodd" clip-rule="evenodd" d="M16.0326 3H7.96729C5.22827 3 3 5.22839 3 7.96741V16.0326C3 18.7717 5.22827 21 7.96729 21H16.0326C18.7717 21 21 18.7716 21 16.0326V7.96741C21.0001 5.22839 18.7717 3 16.0326 3ZM20.0001 16.3579C20.0001 18.3662 18.3662 20 16.3579 20H7.64197C5.63379 20.0001 4 18.3662 4 16.3579V7.64209C4 5.63391 5.63379 4 7.64197 4H16.3578C18.3661 4 20 5.63391 20 7.64209L20.0001 16.3579ZM7.36182 12.0002C7.36182 9.44275 9.4425 7.36206 12 7.36206C14.5575 7.36206 16.6381 9.44275 16.6381 12.0002C16.6381 14.5576 14.5575 16.6382 12 16.6382C9.4425 16.6382 7.36182 14.5576 7.36182 12.0002ZM16.4348 5.83411C16.5833 5.68506 16.7898 5.59998 17 5.59998C17.2108 5.59998 17.4174 5.68506 17.5658 5.83411C17.7148 5.98254 17.7999 6.18909 17.7999 6.40002C17.7999 6.61011 17.7148 6.81665 17.5658 6.96582C17.4166 7.11414 17.2108 7.19995 17 7.19995C16.7898 7.19995 16.5833 7.11414 16.4348 6.96582C16.2858 6.81665 16.2 6.61023 16.2 6.40002C16.2 6.26428 16.2355 6.13049 16.3004 6.0127C16.3364 5.94739 16.3816 5.88708 16.4348 5.83411Z" fill="white"/>
<mask id="mask0" mask-type="alpha" maskUnits="userSpaceOnUse" x="7" y="5" width="11" height="12">
<path id="Combined Shape_2" fill-rule="evenodd" clip-rule="evenodd" d="M16.4348 5.83411C16.5833 5.68506 16.7898 5.59998 17 5.59998C17.2108 5.59998 17.4174 5.68506 17.5658 5.83411C17.7148 5.98254 17.7999 6.18909 17.7999 6.40002C17.7999 6.61011 17.7148 6.81665 17.5658 6.96582C17.4166 7.11414 17.2108 7.19995 17 7.19995C16.7898 7.19995 16.5833 7.11414 16.4348 6.96582C16.2858 6.81665 16.2 6.61023 16.2 6.40002C16.2 6.26428 16.2355 6.13049 16.3004 6.0127C16.3364 5.94739 16.3816 5.88708 16.4348 5.83411ZM12 7.36206C9.4425 7.36206 7.36182 9.44275 7.36182 12.0002C7.36182 14.5576 9.4425 16.6382 12 16.6382C14.5575 16.6382 16.6381 14.5576 16.6381 12.0002C16.6381 9.44275 14.5575 7.36206 12 7.36206ZM12 15.8397C9.88269 15.8397 8.16003 14.1173 8.16003 12C8.16003 9.88257 9.88257 8.16003 12 8.16003C14.1174 8.16003 15.8401 9.88257 15.8401 12C15.8401 14.1173 14.1173 15.8397 12 15.8397Z" fill="white"/>
</mask>
<g mask="url(#mask0)">
</g>
</g>
</symbol>


</svg>
